<svg version="1.1" id="Layer_1" xmlns="http://www.w3.org/2000/svg" xmlns:xlink="http://www.w3.org/1999/xlink" x="0px" y="0px"
	 width="100%" viewBox="0 0 750 750" enable-background="new 0 0 750 750" xml:space="preserve">
<path fill="#000000" opacity="1.000000" stroke="none" 
	d="
M408.000000,751.000000 
	C273.500000,751.000000 139.499985,750.981750 5.500079,751.094177 
	C1.750550,751.097351 0.905072,750.249146 0.906640,746.499939 
	C1.009921,499.500000 1.009921,252.500000 0.906640,5.500039 
	C0.905072,1.750823 1.750823,0.905071 5.500039,0.906639 
	C252.500000,1.009927 499.500000,1.009927 746.499939,0.906639 
	C750.249146,0.905071 751.094971,1.750823 751.093384,5.500039 
	C750.990112,252.500000 750.990112,499.500000 751.093384,746.499939 
	C751.094971,750.249146 750.249573,751.098450 746.499878,751.094543 
	C633.833313,750.978394 521.166687,751.000000 408.000000,751.000000 
z"/>
<path fill="#FDFDFD" opacity="1.000000" stroke="none" 
	d="
M450.837006,323.166504 
	C457.745026,330.242584 457.669434,330.070435 448.731049,333.995117 
	C423.877686,344.907837 400.226562,358.249115 375.929291,370.288391 
	C358.038879,379.153076 340.108063,387.911224 320.752441,393.221649 
	C314.442596,394.952850 307.925201,395.617981 301.485992,394.461975 
	C286.722198,391.811523 278.676666,380.113251 279.669098,362.965851 
	C280.893646,341.807861 291.167450,325.356171 307.325775,312.533600 
	C327.371613,296.626007 350.893127,289.399231 376.077271,290.350983 
	C404.764923,291.435120 430.035431,302.263733 450.837006,323.166504 
z"/>
<path fill="#FCFCFB" opacity="1.000000" stroke="none" 
	d="
M495.317291,322.316040 
	C488.771393,331.727936 481.252319,339.969452 473.746124,348.204834 
	C471.446167,350.728241 471.169342,352.455994 472.682465,355.905457 
	C481.235474,375.403503 483.792389,395.824799 479.641266,416.779907 
	C470.833771,461.240723 443.242554,488.662048 400.999146,502.548767 
	C399.915100,502.905121 398.744690,502.998657 397.499878,502.986908 
	C405.829315,498.339447 414.013855,493.538177 420.491364,486.424744 
	C429.066193,477.008087 435.407318,466.378113 433.405548,453.167328 
	C430.435760,433.567810 415.841949,423.575439 395.760803,425.310303 
	C378.324432,426.816681 362.586029,433.275024 346.750854,439.848816 
	C319.737335,451.063080 292.377563,461.386322 264.835205,471.226654 
	C263.621155,471.660370 262.453064,472.360962 260.454865,471.679474 
	C267.421204,467.172241 274.028137,462.869232 280.662842,458.609528 
	C321.675171,432.277954 362.693207,405.955231 403.710388,379.631134 
	C431.721100,361.654388 459.712341,343.647156 487.780212,325.760132 
	C490.367188,324.111511 492.180695,321.222839 495.541565,320.814972 
	C495.620209,320.805420 495.828461,321.078308 495.808075,321.188293 
	C495.750519,321.499054 495.605316,321.793549 495.317291,322.316040 
z"/>
<path fill="#FCFCFB" opacity="1.000000" stroke="none" 
	d="
M505.762085,311.324036 
	C502.474396,306.258606 498.894104,301.878662 494.107147,298.085602 
	C496.512512,296.874237 497.660645,297.923462 498.867676,298.204071 
	C506.033905,299.869873 512.891541,302.068665 519.948730,296.799713 
	C524.432861,293.451843 530.504883,293.135803 536.083496,292.293091 
	C537.026794,292.150604 538.235840,291.585419 538.878357,292.550720 
	C539.674866,293.747345 538.506287,294.681183 537.940552,295.654572 
	C534.908020,300.871582 531.571655,306.007111 526.422424,309.231018 
	C519.666565,313.460785 519.176880,320.216034 518.145630,326.895050 
	C517.929871,328.292236 517.891724,329.716858 517.655457,332.497437 
	C513.338867,324.757416 510.682434,317.582672 505.762085,311.324036 
z"/>
</svg>